<svg xmlns="http://www.w3.org/2000/svg" xmlns:xlink="http://www.w3.org/1999/xlink" width="500" zoomAndPan="magnify" viewBox="0 0 375 374.999991" height="500" preserveAspectRatio="xMidYMid meet" version="1.0"><defs><clipPath id="5a26353d7a"><path d="M 158.570312 97 L 283 97 L 283 234.996094 L 158.570312 234.996094 Z M 158.570312 97 " clip-rule="nonzero"/></clipPath><clipPath id="a486cfdd57"><path d="M 92.117188 97.550781 L 206.867188 97.550781 L 206.867188 234.800781 L 92.117188 234.800781 Z M 92.117188 97.550781 " clip-rule="nonzero"/></clipPath></defs><g clip-path="url(#5a26353d7a)"><path fill="#00b8ff" d="M 243.339844 150.320312 C 243.148438 147.730469 242.796875 145.054688 242.492188 142.289062 C 242.394531 141.390625 242.285156 140.109375 242.125 139.070312 C 242.109375 138.925781 241.835938 137.46875 241.820312 137.4375 C 240.378906 132.957031 243.46875 140.925781 241.386719 136.382812 L 202.148438 195.148438 C 197.585938 202.171875 196.800781 199.996094 200.996094 208.238281 L 214.4375 234.339844 C 214.5 234.421875 214.660156 234.582031 214.789062 234.691406 C 218.726562 226.113281 223.910156 216.816406 228.089844 208.71875 C 232.296875 200.589844 237.148438 190.1875 241.660156 182.890625 C 243.707031 187.304688 242.316406 193.675781 245.117188 196.828125 L 282.871094 97.027344 C 279.78125 99.941406 275.78125 106.085938 273.027344 109.894531 C 269.8125 114.34375 266.65625 118.683594 263.425781 123.257812 C 260.351562 127.578125 257.152344 132.046875 253.871094 136.671875 C 251.261719 140.320312 246.0625 148.863281 243.339844 150.320312 Z M 210.582031 171.414062 C 211.414062 170.804688 210.324219 171.605469 210.582031 171.414062 Z M 195.203125 195.292969 L 211.476562 170.246094 C 214.917969 165.238281 214.644531 166.117188 211.878906 160.660156 C 208.917969 154.785156 194.5625 125.242188 192.082031 122.585938 L 158.570312 122.074219 Z M 195.203125 195.292969 " fill-opacity="1" fill-rule="evenodd"/></g><path fill="#00b8ff" d="M 160.582031 163.777344 L 120.484375 220.671875 L 133.710938 191.816406 L 143.695312 170.03125 C 144.578125 168.09375 143.433594 165.839844 141.351562 165.414062 L 122.589844 161.585938 C 120.429688 161.144531 119.292969 158.75 120.320312 156.804688 C 125.089844 147.773438 136.730469 125.664062 140.1875 118.503906 L 157.277344 118.503906 C 153.820312 125.664062 144.523438 141.136719 139.71875 150.144531 C 138.066406 153.246094 138.695312 154.015625 144.46875 155.105469 L 158.308594 158.203125 C 160.394531 158.628906 161.464844 161.84375 160.582031 163.777344 " fill-opacity="1" fill-rule="nonzero"/><g clip-path="url(#a486cfdd57)"><path fill="#ffffff" d="M 176.308594 161.667969 L 149.605469 189.894531 L 186.574219 189.894531 L 192.089844 161.667969 Z M 135.453125 205.167969 L 135.144531 205.179688 L 120.484375 220.671875 L 133.710938 191.816406 L 143.695312 170.03125 C 144.578125 168.09375 143.433594 165.839844 141.351562 165.414062 L 122.589844 161.585938 C 120.429688 161.144531 119.292969 158.75 120.320312 156.804688 C 125.089844 147.773438 136.730469 125.664062 140.1875 118.503906 L 114.84375 118.503906 L 92.121094 234.71875 L 186.574219 234.71875 L 192.417969 205.167969 Z M 185.785156 118.503906 L 191.378906 97.558594 L 164.160156 142.339844 C 162.707031 144.558594 164.132812 147.527344 166.769531 147.785156 L 169.617188 148.058594 L 201.34375 148.058594 L 207.183594 118.503906 L 185.785156 118.503906 " fill-opacity="1" fill-rule="nonzero"/></g></svg>